<?xml version="1.0" encoding="iso-8859-1"?>
<!-- Generator: Adobe Illustrator 19.0.0, SVG Export Plug-In . SVG Version: 6.00 Build 0)  -->
<svg version="1.1" id="Layer_1" xmlns="http://www.w3.org/2000/svg" xmlns:xlink="http://www.w3.org/1999/xlink" x="0px" y="0px"
	 viewBox="0 0 512 512" style="enable-background:new 0 0 512 512;" xml:space="preserve">
<path style="fill:#E4F5F4;" d="M490.026,113.772l-0.319,243.936c0,0.396,0.022,0.78,0.055,1.165h-30.808l0.264-192.286
	c0.011-6.087-2.351-11.822-6.658-16.129c-4.296-4.307-10.02-6.691-16.107-6.702l-361.41-0.494l0.033-30.061
	c0-0.077,0-0.341,0.242-0.582c0.242-0.231,0.483-0.242,0.571-0.231l413.314,0.56C489.663,112.948,490.026,113.321,490.026,113.772z"
	/>
<g>
	<polygon style="fill:#F27258;" points="437.233,175.739 436.936,388.208 292.203,275.964 	"/>
	<path style="fill:#F27258;" d="M415.753,399.591l-371.969-0.516l142.075-110.19l25.062,17.426
		c5.581,3.878,12.141,5.823,18.689,5.823c6.526,0,13.042-1.923,18.612-5.779l25.018-17.283L415.753,399.591z M275.755,357.719
		c0-6.076-4.922-10.987-10.987-10.987s-10.987,4.911-10.987,10.987c0,6.065,4.922,10.987,10.987,10.987
		S275.755,363.784,275.755,357.719z M240.596,357.719c0-6.076-4.922-10.987-10.987-10.987s-10.987,4.911-10.987,10.987
		c0,6.065,4.922,10.987,10.987,10.987S240.596,363.784,240.596,357.719z M205.437,357.719c0-6.076-4.922-10.987-10.987-10.987
		s-10.987,4.911-10.987,10.987c0,6.065,4.922,10.987,10.987,10.987S205.437,363.784,205.437,357.719z"/>
</g>
<path style="fill:#FFDB6F;" d="M413.105,165.708L235.729,288.28c-3.67,2.538-8.603,2.527-12.262-0.022L46.432,165.202
	L413.105,165.708z"/>
<g>
	<path style="fill:#201F2E;" d="M489.246,90.973l-413.325-0.56c-0.011,0-0.022,0-0.044,0c-6.065,0-11.778,2.362-16.074,6.647
		c-4.307,4.307-6.691,10.02-6.702,16.107l-0.033,30.072l-29.929-0.044c-0.011,0-0.022,0-0.033,0c-6.076,0-11.789,2.362-16.085,6.647
		c-4.318,4.307-6.691,10.02-6.702,16.107L0,398.195c-0.011,12.569,10.196,22.809,22.765,22.831l413.314,0.56
		c0.011,0,0.022,0,0.033,0c12.547,0,22.765-10.196,22.787-22.754l0.055-39.96l0.264-192.286c0.011-6.087-2.351-11.822-6.658-16.129
		c-4.296-4.307-10.02-6.691-16.107-6.702l-361.41-0.494l0.033-30.061c0-0.077,0-0.341,0.242-0.582
		c0.242-0.231,0.483-0.242,0.571-0.231l413.314,0.56c0.461,0,0.824,0.374,0.824,0.824l-0.319,243.936
		c0,0.396,0.022,0.78,0.055,1.165c0.571,5.516,5.241,9.833,10.91,9.833c0.011,0,0.011,0,0.022,0c6.054,0,10.976-4.9,10.987-10.965
		L512,113.783C512,101.224,501.793,90.995,489.246,90.973z M436.936,388.208L292.203,275.964l145.03-100.225L436.936,388.208z
		 M43.784,399.074l142.075-110.19l25.062,17.426c5.581,3.878,12.141,5.823,18.689,5.823c6.526,0,13.042-1.923,18.612-5.779
		l25.018-17.283l142.514,110.52L43.784,399.074z M22.282,175.168l144.667,100.576L21.985,388.164L22.282,175.168z M235.729,288.28
		c-3.67,2.538-8.603,2.527-12.262-0.022L46.432,165.202l366.673,0.505L235.729,288.28z"/>
	<path style="fill:#201F2E;" d="M264.768,346.732c-6.065,0-10.987,4.911-10.987,10.987c0,6.065,4.922,10.987,10.987,10.987
		s10.987-4.922,10.987-10.987C275.755,351.643,270.833,346.732,264.768,346.732z"/>
	<path style="fill:#201F2E;" d="M229.609,346.732c-6.065,0-10.987,4.911-10.987,10.987c0,6.065,4.922,10.987,10.987,10.987
		s10.987-4.922,10.987-10.987C240.596,351.643,235.674,346.732,229.609,346.732z"/>
	<path style="fill:#201F2E;" d="M194.45,346.732c-6.065,0-10.987,4.911-10.987,10.987c0,6.065,4.922,10.987,10.987,10.987
		s10.987-4.922,10.987-10.987C205.437,351.643,200.515,346.732,194.45,346.732z"/>
</g>
<polygon style="fill:#F27258;" points="166.949,275.744 21.985,388.164 22.282,175.168 "/>
<g>
</g>
<g>
</g>
<g>
</g>
<g>
</g>
<g>
</g>
<g>
</g>
<g>
</g>
<g>
</g>
<g>
</g>
<g>
</g>
<g>
</g>
<g>
</g>
<g>
</g>
<g>
</g>
<g>
</g>
</svg>
