<svg id="Layer_1" data-name="Layer 1" xmlns="http://www.w3.org/2000/svg" viewBox="0 0 299.9 227.9"><defs><style>.cls-1{fill:#3c3c3b;}</style></defs><title>avatar</title><path class="cls-1" d="M432.8,156.9c-23.1-17.9-59.2-20.9-78,3.7a13,13,0,0,0-4.8-.7c-7.7-18.3-27.7-29.9-48.6-34.5a21.8,21.8,0,0,0-2.7-2,3.2,3.2,0,0,0-3.8.5l-.3.3a89.6,89.6,0,0,0-20.7-.7c-40.8,3.6-77.3,29.4-81.6,72a1.3,1.3,0,0,0,.6,1.2,220.9,220.9,0,0,0-6.7,39.9c-8.8-3.8-18,4.7-16.5,14.2a14.6,14.6,0,0,0,9.4,11.3,18.2,18.2,0,0,0,7.1,1c1.1,14.1,4.1,27.6,9.7,39.4,13.6,28.2,42.6,47.7,74,48.5s63.1-17.7,78.1-46.4c7-13.4,10.6-27.5,12.1-42,3.6,1.8,8.3,1.1,11.8-1,5.4-3.2,7.6-9.7,6.7-15.7s-4.5-11.3-10.3-12.9a9.7,9.7,0,0,0-7.8,1.1c-.9-15.1-3.3-30.2-5.9-44.9a2.4,2.4,0,0,0-.2-3.1c4.5-.9,8.1-5.5,9.3-10.2,6.7,9.4,12.7,18.6,16.6,29.8s4.6,22.3,6.2,33.8c.5,3.9,6,2.5,6.4-.9,2.2-22.4-8.9-48.1-24.8-64.3,31.8,10.1,47.1,46.3,49.9,77.3.3,3.7,5.2,3.6,5.7,0,4.6-34.6-23.3-79.8-60.2-83a12.8,12.8,0,0,0-2.8-4.5c10,.9,20.1-.4,29.9,2.7,13.1,4,23.9,13.5,31.5,24.6,15.5,22.7,15.1,50,16,76.3.1,3.9,5.4,3.7,5.9,0,3.9-29.5,0-62.8-19.3-86.5-14-17.3-36.8-27.8-58.7-23.7,23.3-14.2,52-7.7,71.8,12.9,21.4,22.3,25.7,50.4,24.1,79.9-.2,3.2,4.9,3.9,5.6.8C475.1,217.6,459.9,178,432.8,156.9ZM185.6,255.5a8.1,8.1,0,0,1-2.6,0,7.4,7.4,0,0,1-5.9-5.2c-1.7-5.4,3.6-9.7,8.6-8.1Q185.4,248.8,185.6,255.5Zm175-16.4c5.2-4.9,12,4.3,11.6,9.8a7.9,7.9,0,0,1-5.3,7.2c-2.2.7-4.2-.2-6.4-.5C360.8,250.2,360.8,244.6,360.6,239.1Zm-13-58.3a4.4,4.4,0,0,0-2.4,4.8l.7,4c-1.9,1.4-3.8,2.7-5.7,4,.2-18-7.4-40.8-21.1-54.1C334,147.5,345,161.1,347.7,180.8Zm-29.5-21.5a137.9,137.9,0,0,0-4.9-15.1c4.4,5.1,8.8,10.1,12.2,16.4,6.1,11.3,8.5,23.1,9.9,35.7a97.7,97.7,0,0,1-15.2,7.1A99.4,99.4,0,0,0,318.2,159.3Zm-18.5-26.9c5.5,7.9,12.5,30.4,13.2,33.7,3,13,3.1,25.8,2.3,38.9a108.6,108.6,0,0,1-23.3,4.3c6.3-24.6,7.6-54.2-.5-78.3C294.3,131.4,297,131.9,299.7,132.4Zm-19.6,22.7c1.1-3.9,3.1-14.7,6.4-20.5,1.3,12.2,3.5,24.2,3.7,36.5s-1.2,25.7-2.8,38.5c-3.7.2-7.4.2-11.3,0l-7.9-.5c2.8-12.1,4.2-24.5,7.1-36.6C276.9,166.7,278.5,160.9,280.2,155.2Zm-2.9-16.4c-1.7,5.5-2.7,11.4-3.6,14.6-5.2,17.5-10.2,36.7-10.4,55.2-5.4-.6-10.8-1.4-16.2-2.4C257.9,183.9,261.8,158.4,277.3,138.7Zm-5.9-3.3c-5.7,7.1-9.8,15.4-13.4,24-4.4,10.7-18.9,35.2-11.8,45.8a1.1,1.1,0,0,0-1.8-.2l-.2.2a1,1,0,0,0-.3.6l-9.3-1.7-8.8-1.7C235.4,178.9,249.2,150.1,271.4,135.4Zm-48.8,66.2a74.7,74.7,0,0,1-11.5-3.5v-.4a.5.5,0,0,0-.7-.4c4.7-2.6,9.2-19.1,11.7-23.7a88,88,0,0,1,15.9-21.4,82,82,0,0,1,19.8-14C240.2,154.8,227.5,181.4,222.6,201.6Zm24.5-64.5a86.4,86.4,0,0,0-15,12.3,93.3,93.3,0,0,0-17.4,25.9c-2.9,6.2-7.4,14-7.3,21.1a38.6,38.6,0,0,1-6.9-4.4q.2-3.1.4-6.2a2,2,0,0,0-1.4-2.1C208.2,162.4,225.8,145.8,247.1,137.1Zm96.8,154.3c-12.2,31.1-42.4,52.6-76.4,50.4-30.8-2-58.2-23.8-67.4-53.3s-2.7-61-.1-91.1c5.8,5.7,13.3,8.4,21.6,10.5,16.8,4.1,34.2,7.3,51.5,8.3,25.7,1.5,53.8-3,73.9-19.7C352.2,228.1,355.8,261.1,343.9,291.4Zm9.5-113a43.9,43.9,0,0,0-1.7-13.7l.5.2a1.9,1.9,0,0,0,2.5,1.4,7.7,7.7,0,0,1,2.6,3.5,1.8,1.8,0,0,0,.4,1.9,6.8,6.8,0,0,1,0,.8C357.5,175.8,355.6,177.3,353.3,178.5Z" transform="translate(-169.4 -123.1)"/><path class="cls-1" d="M286.9,276.1c-2.9,2-7.2,5.1-10.5,1.9s-.6-8.4,2.7-10.1.7-4.8-1.9-4.4c-8.5,1.4-11.6,13.2-6,19.3s18.9,5.1,19.8-4.2A2.8,2.8,0,0,0,286.9,276.1Z" transform="translate(-169.4 -123.1)"/><path class="cls-1" d="M304.9,285.4c-2.7,11.8-8.5,22.7-21,26.2-10.9,3-33.4-3.2-33-18,.1-2.8-4-3.2-4.8-.6-5.3,16.9,18.9,28.3,32.4,28,17.9-.4,34.1-16.6,33.3-34.6C311.6,282.6,305.8,281.4,304.9,285.4Z" transform="translate(-169.4 -123.1)"/><path class="cls-1" d="M236.6,252.8l-1.7-14c-1-8.3-12.5-6.8-11.4,1.5l1.9,14C226.3,260.6,237.4,259.2,236.6,252.8Z" transform="translate(-169.4 -123.1)"/><path class="cls-1" d="M324.9,241.2c-.2-3.9.3-7.2-2.6-10.1a4.8,4.8,0,0,0-6.7,0c-3,3.2-2.4,6.8-2.1,10.9a84.9,84.9,0,0,0,1.7,11.9c1.3,5.9,11.2,4.7,10.7-1.4C325.6,248.7,325.1,245,324.9,241.2Z" transform="translate(-169.4 -123.1)"/></svg>